<mxfile host="Electron" modified="2023-12-19T07:50:29.246Z" agent="Mozilla/5.0 (Windows NT 10.0; Win64; x64) AppleWebKit/537.36 (KHTML, like Gecko) draw.io/22.1.2 Chrome/114.0.5735.289 Electron/25.9.4 Safari/537.36" etag="wgMNpo-rNnqytAwcz2ak" version="22.1.2" type="device">
  <diagram name="第 1 页" id="_R4akNsW9U3760W3_jeO">
    <mxGraphModel dx="537" dy="901" grid="1" gridSize="10" guides="1" tooltips="1" connect="1" arrows="1" fold="1" page="1" pageScale="1" pageWidth="827" pageHeight="1169" math="0" shadow="0">
      <root>
        <mxCell id="0" />
        <mxCell id="1" parent="0" />
        <mxCell id="UudbVF4Xy0ZOliuLzZcs-11" style="edgeStyle=orthogonalEdgeStyle;rounded=0;orthogonalLoop=1;jettySize=auto;html=1;exitX=0.5;exitY=1;exitDx=0;exitDy=0;entryX=0.5;entryY=0;entryDx=0;entryDy=0;" edge="1" parent="1" source="UudbVF4Xy0ZOliuLzZcs-1" target="UudbVF4Xy0ZOliuLzZcs-4">
          <mxGeometry relative="1" as="geometry" />
        </mxCell>
        <mxCell id="UudbVF4Xy0ZOliuLzZcs-1" value="&lt;b&gt;&lt;font&gt;new 指令&lt;/font&gt;&lt;/b&gt;" style="rounded=1;whiteSpace=wrap;html=1;fillColor=#d5e8d4;strokeColor=#82b366;fontColor=#000000;" vertex="1" parent="1">
          <mxGeometry x="170" y="200" width="120" height="40" as="geometry" />
        </mxCell>
        <mxCell id="UudbVF4Xy0ZOliuLzZcs-6" style="edgeStyle=orthogonalEdgeStyle;rounded=0;orthogonalLoop=1;jettySize=auto;html=1;exitX=0.5;exitY=1;exitDx=0;exitDy=0;entryX=0.5;entryY=0;entryDx=0;entryDy=0;" edge="1" parent="1" source="UudbVF4Xy0ZOliuLzZcs-4" target="UudbVF4Xy0ZOliuLzZcs-5">
          <mxGeometry relative="1" as="geometry" />
        </mxCell>
        <mxCell id="UudbVF4Xy0ZOliuLzZcs-7" style="edgeStyle=orthogonalEdgeStyle;rounded=0;orthogonalLoop=1;jettySize=auto;html=1;exitX=1;exitY=0.5;exitDx=0;exitDy=0;entryX=1;entryY=0.5;entryDx=0;entryDy=0;" edge="1" parent="1" source="UudbVF4Xy0ZOliuLzZcs-4" target="UudbVF4Xy0ZOliuLzZcs-5">
          <mxGeometry relative="1" as="geometry">
            <mxPoint x="400" y="470" as="targetPoint" />
            <Array as="points">
              <mxPoint x="380" y="335" />
              <mxPoint x="380" y="480" />
            </Array>
          </mxGeometry>
        </mxCell>
        <mxCell id="UudbVF4Xy0ZOliuLzZcs-4" value="" style="rhombus;whiteSpace=wrap;html=1;fontStyle=1;fillColor=#dae8fc;strokeColor=#6c8ebf;fontColor=#808080;" vertex="1" parent="1">
          <mxGeometry x="140" y="280" width="180" height="110" as="geometry" />
        </mxCell>
        <mxCell id="UudbVF4Xy0ZOliuLzZcs-19" style="edgeStyle=orthogonalEdgeStyle;rounded=0;orthogonalLoop=1;jettySize=auto;html=1;exitX=0.5;exitY=1;exitDx=0;exitDy=0;entryX=0.5;entryY=0;entryDx=0;entryDy=0;" edge="1" parent="1" source="UudbVF4Xy0ZOliuLzZcs-5" target="UudbVF4Xy0ZOliuLzZcs-16">
          <mxGeometry relative="1" as="geometry" />
        </mxCell>
        <mxCell id="UudbVF4Xy0ZOliuLzZcs-5" value="" style="rounded=1;whiteSpace=wrap;html=1;fillColor=#d5e8d4;strokeColor=#82b366;" vertex="1" parent="1">
          <mxGeometry x="147.5" y="440" width="165" height="80" as="geometry" />
        </mxCell>
        <mxCell id="UudbVF4Xy0ZOliuLzZcs-9" value="类加载" style="rounded=1;whiteSpace=wrap;html=1;fontStyle=1;fillColor=#e1d5e7;strokeColor=#9673a6;" vertex="1" parent="1">
          <mxGeometry x="340" y="380" width="80" height="40" as="geometry" />
        </mxCell>
        <mxCell id="UudbVF4Xy0ZOliuLzZcs-10" value="1. 类加载检查" style="text;html=1;strokeColor=none;fillColor=none;align=center;verticalAlign=middle;whiteSpace=wrap;rounded=0;fontStyle=1;fontColor=#000000;" vertex="1" parent="1">
          <mxGeometry x="180" y="300" width="95" height="30" as="geometry" />
        </mxCell>
        <mxCell id="UudbVF4Xy0ZOliuLzZcs-12" value="2. 内存分配" style="text;html=1;strokeColor=none;fillColor=none;align=center;verticalAlign=middle;whiteSpace=wrap;rounded=0;fontStyle=1" vertex="1" parent="1">
          <mxGeometry x="193.75" y="440" width="72.5" height="30" as="geometry" />
        </mxCell>
        <mxCell id="UudbVF4Xy0ZOliuLzZcs-13" value="是否已被加载、解析和初始化" style="text;html=1;strokeColor=none;fillColor=none;align=center;verticalAlign=middle;whiteSpace=wrap;rounded=0;fontColor=#808080;" vertex="1" parent="1">
          <mxGeometry x="175" y="330" width="110" height="30" as="geometry" />
        </mxCell>
        <mxCell id="UudbVF4Xy0ZOliuLzZcs-14" value="线程安全" style="rounded=1;whiteSpace=wrap;html=1;fillColor=#f8cecc;strokeColor=#b85450;fontStyle=1" vertex="1" parent="1">
          <mxGeometry x="240" y="480" width="61" height="30" as="geometry" />
        </mxCell>
        <mxCell id="UudbVF4Xy0ZOliuLzZcs-15" value="分配方式" style="rounded=1;whiteSpace=wrap;html=1;fillColor=#fff2cc;strokeColor=#d6b656;fontStyle=1" vertex="1" parent="1">
          <mxGeometry x="160" y="480" width="60" height="30" as="geometry" />
        </mxCell>
        <mxCell id="UudbVF4Xy0ZOliuLzZcs-20" style="edgeStyle=orthogonalEdgeStyle;rounded=0;orthogonalLoop=1;jettySize=auto;html=1;exitX=0.5;exitY=1;exitDx=0;exitDy=0;entryX=0.5;entryY=0;entryDx=0;entryDy=0;" edge="1" parent="1" source="UudbVF4Xy0ZOliuLzZcs-16" target="UudbVF4Xy0ZOliuLzZcs-17">
          <mxGeometry relative="1" as="geometry" />
        </mxCell>
        <mxCell id="UudbVF4Xy0ZOliuLzZcs-16" value="3. 初始化零值" style="rounded=1;whiteSpace=wrap;html=1;fontStyle=1;fillColor=#d5e8d4;strokeColor=#82b366;" vertex="1" parent="1">
          <mxGeometry x="170" y="560" width="120" height="40" as="geometry" />
        </mxCell>
        <mxCell id="UudbVF4Xy0ZOliuLzZcs-21" style="edgeStyle=orthogonalEdgeStyle;rounded=0;orthogonalLoop=1;jettySize=auto;html=1;exitX=0.5;exitY=1;exitDx=0;exitDy=0;entryX=0.5;entryY=0;entryDx=0;entryDy=0;" edge="1" parent="1" source="UudbVF4Xy0ZOliuLzZcs-17" target="UudbVF4Xy0ZOliuLzZcs-18">
          <mxGeometry relative="1" as="geometry" />
        </mxCell>
        <mxCell id="UudbVF4Xy0ZOliuLzZcs-17" value="4. 设置对象头" style="rounded=1;whiteSpace=wrap;html=1;fillColor=#d5e8d4;strokeColor=#82b366;fontStyle=1" vertex="1" parent="1">
          <mxGeometry x="170" y="640" width="120" height="40" as="geometry" />
        </mxCell>
        <mxCell id="UudbVF4Xy0ZOliuLzZcs-18" value="5. 执行 init 方法" style="rounded=1;whiteSpace=wrap;html=1;fillColor=#d5e8d4;strokeColor=#82b366;fontStyle=1" vertex="1" parent="1">
          <mxGeometry x="170" y="720" width="120" height="40" as="geometry" />
        </mxCell>
      </root>
    </mxGraphModel>
  </diagram>
</mxfile>
